<svg xmlns="http://www.w3.org/2000/svg" viewBox="0 0 900 650" width="900" height="650">
  <defs>
    <!-- 渐变定义 -->
    <linearGradient id="proposalGrad" x1="0%" y1="0%" x2="0%" y2="100%">
      <stop offset="0%" style="stop-color:#667eea;stop-opacity:1" />
      <stop offset="100%" style="stop-color:#764ba2;stop-opacity:1" />
    </linearGradient>
    <linearGradient id="applyGrad" x1="0%" y1="0%" x2="0%" y2="100%">
      <stop offset="0%" style="stop-color:#11998e;stop-opacity:1" />
      <stop offset="100%" style="stop-color:#38ef7d;stop-opacity:1" />
    </linearGradient>
    <linearGradient id="archiveGrad" x1="0%" y1="0%" x2="0%" y2="100%">
      <stop offset="0%" style="stop-color:#8e2de2;stop-opacity:1" />
      <stop offset="100%" style="stop-color:#4a00e0;stop-opacity:1" />
    </linearGradient>
    <linearGradient id="gateGrad" x1="0%" y1="0%" x2="100%" y2="0%">
      <stop offset="0%" style="stop-color:#ff416c;stop-opacity:1" />
      <stop offset="100%" style="stop-color:#ff4b2b;stop-opacity:1" />
    </linearGradient>

    <!-- 阴影 -->
    <filter id="shadow" x="-20%" y="-20%" width="140%" height="140%">
      <feDropShadow dx="2" dy="4" stdDeviation="4" flood-opacity="0.2"/>
    </filter>

    <!-- 箭头标记 -->
    <marker id="arrowhead" markerWidth="10" markerHeight="7" refX="9" refY="3.5" orient="auto">
      <polygon points="0 0, 10 3.5, 0 7" fill="#6c757d"/>
    </marker>
  </defs>

  <!-- 背景 -->
  <rect width="900" height="650" fill="#f8f9fa"/>

  <!-- 标题 -->
  <text x="450" y="40" font-family="Arial, sans-serif" font-size="24" font-weight="bold" fill="#2d3748" text-anchor="middle">DevBooks 工作流</text>
  <text x="450" y="65" font-family="Arial, sans-serif" font-size="14" fill="#6c757d" text-anchor="middle">角色隔离 + 质量闸门 + 证据驱动</text>

  <!-- ========== PROPOSAL 阶段 ========== -->
  <g transform="translate(30, 90)">
    <!-- 阶段标签 -->
    <rect x="0" y="0" width="250" height="240" rx="15" fill="url(#proposalGrad)" filter="url(#shadow)" opacity="0.15"/>
    <rect x="0" y="0" width="250" height="35" rx="15" fill="url(#proposalGrad)"/>
    <rect x="0" y="17" width="250" height="18" fill="url(#proposalGrad)"/>
    <text x="125" y="24" font-family="Arial, sans-serif" font-size="14" font-weight="bold" fill="white" text-anchor="middle">PROPOSAL 阶段</text>
    <text x="125" y="55" font-family="Arial, sans-serif" font-size="11" fill="#6c757d" text-anchor="middle">禁止写代码</text>

    <!-- 步骤节点 -->
    <rect x="20" y="70" width="210" height="40" rx="8" fill="white" stroke="#667eea" stroke-width="2"/>
    <text x="125" y="95" font-family="Arial, sans-serif" font-size="12" fill="#4a5568" text-anchor="middle">proposal.md (提案)</text>

    <rect x="20" y="120" width="210" height="40" rx="8" fill="white" stroke="#667eea" stroke-width="2"/>
    <text x="125" y="145" font-family="Arial, sans-serif" font-size="12" fill="#4a5568" text-anchor="middle">design.md (设计)</text>

    <rect x="20" y="170" width="210" height="40" rx="8" fill="white" stroke="#667eea" stroke-width="2"/>
    <text x="125" y="195" font-family="Arial, sans-serif" font-size="12" fill="#4a5568" text-anchor="middle">tasks.md (计划)</text>
  </g>

  <!-- 三角辩论框 -->
  <g transform="translate(30, 350)">
    <rect x="0" y="0" width="250" height="100" rx="10" fill="white" stroke="#667eea" stroke-width="2" stroke-dasharray="5,5" filter="url(#shadow)"/>
    <text x="125" y="25" font-family="Arial, sans-serif" font-size="12" font-weight="bold" fill="#667eea" text-anchor="middle">三角辩论 (可选)</text>
    <text x="125" y="50" font-family="Arial, sans-serif" font-size="11" fill="#6c757d" text-anchor="middle">Author / Challenger / Judge</text>
    <text x="125" y="70" font-family="Arial, sans-serif" font-size="10" fill="#6c757d" text-anchor="middle">高风险变更必须通过</text>
    <text x="125" y="88" font-family="Arial, sans-serif" font-size="10" fill="#38a169" text-anchor="middle">Decision: Approved / Revise / Rejected</text>
  </g>

  <!-- ========== APPLY 阶段 ========== -->
  <g transform="translate(320, 90)">
    <!-- 阶段标签 -->
    <rect x="0" y="0" width="260" height="360" rx="15" fill="url(#applyGrad)" filter="url(#shadow)" opacity="0.15"/>
    <rect x="0" y="0" width="260" height="35" rx="15" fill="url(#applyGrad)"/>
    <rect x="0" y="17" width="260" height="18" fill="url(#applyGrad)"/>
    <text x="130" y="24" font-family="Arial, sans-serif" font-size="14" font-weight="bold" fill="white" text-anchor="middle">APPLY 阶段</text>
    <text x="130" y="55" font-family="Arial, sans-serif" font-size="11" fill="#6c757d" text-anchor="middle">角色隔离强制执行</text>

    <!-- Test Owner 区域 -->
    <rect x="15" y="70" width="230" height="120" rx="10" fill="white" stroke="#e53e3e" stroke-width="2" stroke-dasharray="8,4"/>
    <text x="130" y="90" font-family="Arial, sans-serif" font-size="12" font-weight="bold" fill="#e53e3e" text-anchor="middle">Chat A: Test Owner</text>
    <text x="130" y="110" font-family="Arial, sans-serif" font-size="10" fill="#6c757d" text-anchor="middle">独立对话 / 独立实例</text>

    <rect x="30" y="120" width="200" height="30" rx="6" fill="#fed7d7" stroke="#e53e3e" stroke-width="1"/>
    <text x="130" y="140" font-family="Arial, sans-serif" font-size="11" fill="#c53030" text-anchor="middle">verification.md + tests/</text>

    <rect x="30" y="155" width="200" height="25" rx="6" fill="#fc8181"/>
    <text x="130" y="172" font-family="Arial, sans-serif" font-size="11" font-weight="bold" fill="white" text-anchor="middle">先跑出 RED 基线</text>

    <!-- Coder 区域 -->
    <rect x="15" y="205" width="230" height="120" rx="10" fill="white" stroke="#38a169" stroke-width="2" stroke-dasharray="8,4"/>
    <text x="130" y="225" font-family="Arial, sans-serif" font-size="12" font-weight="bold" fill="#38a169" text-anchor="middle">Chat B: Coder</text>
    <text x="130" y="245" font-family="Arial, sans-serif" font-size="10" fill="#6c757d" text-anchor="middle">独立对话 / 独立实例</text>

    <rect x="30" y="255" width="200" height="30" rx="6" fill="#c6f6d5" stroke="#38a169" stroke-width="1"/>
    <text x="130" y="275" font-family="Arial, sans-serif" font-size="11" fill="#276749" text-anchor="middle">按 tasks.md 实现</text>

    <rect x="30" y="290" width="200" height="25" rx="6" fill="#48bb78"/>
    <text x="130" y="307" font-family="Arial, sans-serif" font-size="11" font-weight="bold" fill="white" text-anchor="middle">让闸门变 GREEN</text>

    <!-- 禁止标记 -->
    <rect x="60" y="330" width="140" height="20" rx="4" fill="#feb2b2"/>
    <text x="130" y="344" font-family="Arial, sans-serif" font-size="10" font-weight="bold" fill="#c53030" text-anchor="middle">Coder 禁止改 tests/</text>
  </g>

  <!-- ========== ARCHIVE 阶段 ========== -->
  <g transform="translate(620, 90)">
    <!-- 阶段标签 -->
    <rect x="0" y="0" width="250" height="240" rx="15" fill="url(#archiveGrad)" filter="url(#shadow)" opacity="0.15"/>
    <rect x="0" y="0" width="250" height="35" rx="15" fill="url(#archiveGrad)"/>
    <rect x="0" y="17" width="250" height="18" fill="url(#archiveGrad)"/>
    <text x="125" y="24" font-family="Arial, sans-serif" font-size="14" font-weight="bold" fill="white" text-anchor="middle">ARCHIVE 阶段</text>
    <text x="125" y="55" font-family="Arial, sans-serif" font-size="11" fill="#6c757d" text-anchor="middle">质量闸门检查</text>

    <!-- 步骤节点 -->
    <rect x="20" y="70" width="210" height="40" rx="8" fill="white" stroke="#8e2de2" stroke-width="2"/>
    <text x="125" y="95" font-family="Arial, sans-serif" font-size="12" fill="#4a5568" text-anchor="middle">Code Review</text>

    <rect x="20" y="120" width="210" height="40" rx="8" fill="white" stroke="#8e2de2" stroke-width="2"/>
    <text x="125" y="145" font-family="Arial, sans-serif" font-size="12" fill="#4a5568" text-anchor="middle">Archiver</text>

    <rect x="20" y="170" width="210" height="40" rx="8" fill="white" stroke="#8e2de2" stroke-width="2"/>
    <text x="125" y="195" font-family="Arial, sans-serif" font-size="12" fill="#4a5568" text-anchor="middle">合并到 truth-root</text>
  </g>

  <!-- ========== 质量闸门 ========== -->
  <g transform="translate(620, 350)">
    <rect x="0" y="0" width="250" height="130" rx="10" fill="white" stroke="url(#gateGrad)" stroke-width="2" filter="url(#shadow)"/>
    <text x="125" y="25" font-family="Arial, sans-serif" font-size="12" font-weight="bold" fill="#e53e3e" text-anchor="middle">质量闸门</text>

    <!-- 闸门列表 -->
    <circle cx="30" cy="50" r="8" fill="#48bb78"/>
    <text x="45" y="54" font-family="Arial, sans-serif" font-size="10" fill="#4a5568">Green 证据存在</text>

    <circle cx="30" cy="72" r="8" fill="#48bb78"/>
    <text x="45" y="76" font-family="Arial, sans-serif" font-size="10" fill="#4a5568">任务全部完成</text>

    <circle cx="30" cy="94" r="8" fill="#48bb78"/>
    <text x="45" y="98" font-family="Arial, sans-serif" font-size="10" fill="#4a5568">角色边界未违规</text>

    <circle cx="30" cy="116" r="8" fill="#48bb78"/>
    <text x="45" y="120" font-family="Arial, sans-serif" font-size="10" fill="#4a5568">无失败记录</text>
  </g>

  <!-- ========== 连接箭头 ========== -->
  <!-- Proposal -> Apply -->
  <path d="M 280 210 L 320 210" stroke="#6c757d" stroke-width="2" fill="none" marker-end="url(#arrowhead)"/>

  <!-- Apply -> Archive -->
  <path d="M 580 210 L 620 210" stroke="#6c757d" stroke-width="2" fill="none" marker-end="url(#arrowhead)"/>

  <!-- Test Owner -> Coder (内部) -->
  <path d="M 450 205 L 450 205" stroke="#6c757d" stroke-width="1" fill="none"/>

  <!-- ========== 产物流转 ========== -->
  <g transform="translate(30, 480)">
    <rect x="0" y="0" width="840" height="80" rx="10" fill="#edf2f7" stroke="#cbd5e0" stroke-width="1"/>
    <text x="420" y="25" font-family="Arial, sans-serif" font-size="12" font-weight="bold" fill="#4a5568" text-anchor="middle">产物流转</text>

    <!-- 产物节点 -->
    <rect x="20" y="40" width="100" height="28" rx="5" fill="#667eea"/>
    <text x="70" y="58" font-family="Arial, sans-serif" font-size="10" fill="white" text-anchor="middle">proposal.md</text>

    <text x="130" y="55" font-family="Arial, sans-serif" font-size="14" fill="#6c757d">→</text>

    <rect x="145" y="40" width="90" height="28" rx="5" fill="#667eea"/>
    <text x="190" y="58" font-family="Arial, sans-serif" font-size="10" fill="white" text-anchor="middle">design.md</text>

    <text x="245" y="55" font-family="Arial, sans-serif" font-size="14" fill="#6c757d">→</text>

    <rect x="260" y="40" width="80" height="28" rx="5" fill="#667eea"/>
    <text x="300" y="58" font-family="Arial, sans-serif" font-size="10" fill="white" text-anchor="middle">tasks.md</text>

    <text x="350" y="55" font-family="Arial, sans-serif" font-size="14" fill="#6c757d">→</text>

    <rect x="365" y="40" width="110" height="28" rx="5" fill="#38a169"/>
    <text x="420" y="58" font-family="Arial, sans-serif" font-size="10" fill="white" text-anchor="middle">verification.md</text>

    <text x="485" y="55" font-family="Arial, sans-serif" font-size="14" fill="#6c757d">→</text>

    <rect x="500" y="40" width="80" height="28" rx="5" fill="#38a169"/>
    <text x="540" y="58" font-family="Arial, sans-serif" font-size="10" fill="white" text-anchor="middle">evidence/</text>

    <text x="590" y="55" font-family="Arial, sans-serif" font-size="14" fill="#6c757d">→</text>

    <rect x="605" y="40" width="100" height="28" rx="5" fill="#8e2de2"/>
    <text x="655" y="58" font-family="Arial, sans-serif" font-size="10" fill="white" text-anchor="middle">truth-root</text>

    <text x="715" y="55" font-family="Arial, sans-serif" font-size="14" fill="#6c757d">→</text>

    <rect x="730" y="40" width="90" height="28" rx="5" fill="#8e2de2"/>
    <text x="775" y="58" font-family="Arial, sans-serif" font-size="10" fill="white" text-anchor="middle">DONE</text>
  </g>

  <!-- ========== 底部说明 ========== -->
  <g transform="translate(30, 580)">
    <text x="0" y="15" font-family="Arial, sans-serif" font-size="11" fill="#718096">
      <tspan font-weight="bold" fill="#e53e3e">硬约束: </tspan>
      <tspan>Test Owner 与 Coder 必须独立对话。"完成"由测试/构建证据定义，而非 AI 自我声明。</tspan>
    </text>
    <text x="0" y="35" font-family="Arial, sans-serif" font-size="10" fill="#a0aec0">
      <tspan>Skills: devbooks-proposal-author → devbooks-design-doc → devbooks-implementation-plan → devbooks-test-owner → devbooks-coder → devbooks-code-review → devbooks-archiver</tspan>
    </text>
  </g>
</svg>
